ffmpeg version 4.2.4-1ubuntu0.1 Copyright (c) 2000-2020 the FFmpeg developers
  built with gcc 9 (Ubuntu 9.3.0-10ubuntu2)
  configuration: --prefix=/usr --extra-version=1ubuntu0.1 --toolchain=hardened --libdir=/usr/lib/x86_64-linux-gnu --incdir=/usr/include/x86_64-linux-gnu --arch=amd64 --enable-gpl --disable-stripping --enable-avresample --disable-filter=resample --enable-avisynth --enable-gnutls --enable-ladspa --enable-libaom --enable-libass --enable-libbluray --enable-libbs2b --enable-libcaca --enable-libcdio --enable-libcodec2 --enable-libflite --enable-libfontconfig --enable-libfreetype --enable-libfribidi --enable-libgme --enable-libgsm --enable-libjack --enable-libmp3lame --enable-libmysofa --enable-libopenjpeg --enable-libopenmpt --enable-libopus --enable-libpulse --enable-librsvg --enable-librubberband --enable-libshine --enable-libsnappy --enable-libsoxr --enable-libspeex --enable-libssh --enable-libtheora --enable-libtwolame --enable-libvidstab --enable-libvorbis --enable-libvpx --enable-libwavpack --enable-libwebp --enable-libx265 --enable-libxml2 --enable-libxvid --enable-libzmq --enable-libzvbi --enable-lv2 --enable-omx --enable-openal --enable-opencl --enable-opengl --enable-sdl2 --enable-libdc1394 --enable-libdrm --enable-libiec61883 --enable-nvenc --enable-chromaprint --enable-frei0r --enable-libx264 --enable-shared
  WARNING: library configuration mismatch
  avcodec     configuration: --prefix=/usr --extra-version=1ubuntu0.1 --toolchain=hardened --libdir=/usr/lib/x86_64-linux-gnu --incdir=/usr/include/x86_64-linux-gnu --arch=amd64 --enable-gpl --disable-stripping --enable-avresample --disable-filter=resample --enable-avisynth --enable-gnutls --enable-ladspa --enable-libaom --enable-libass --enable-libbluray --enable-libbs2b --enable-libcaca --enable-libcdio --enable-libcodec2 --enable-libflite --enable-libfontconfig --enable-libfreetype --enable-libfribidi --enable-libgme --enable-libgsm --enable-libjack --enable-libmp3lame --enable-libmysofa --enable-libopenjpeg --enable-libopenmpt --enable-libopus --enable-libpulse --enable-librsvg --enable-librubberband --enable-libshine --enable-libsnappy --enable-libsoxr --enable-libspeex --enable-libssh --enable-libtheora --enable-libtwolame --enable-libvidstab --enable-libvorbis --enable-libvpx --enable-libwavpack --enable-libwebp --enable-libx265 --enable-libxml2 --enable-libxvid --enable-libzmq --enable-libzvbi --enable-lv2 --enable-omx --enable-openal --enable-opencl --enable-opengl --enable-sdl2 --enable-libdc1394 --enable-libdrm --enable-libiec61883 --enable-nvenc --enable-chromaprint --enable-frei0r --enable-libx264 --enable-shared --enable-version3 --disable-doc --disable-programs --enable-libaribb24 --enable-liblensfun --enable-libopencore_amrnb --enable-libopencore_amrwb --enable-libtesseract --enable-libvo_amrwbenc
  libavutil      56. 31.100 / 56. 31.100
  libavcodec     58. 54.100 / 58. 54.100
  libavformat    58. 29.100 / 58. 29.100
  libavdevice    58.  8.100 / 58.  8.100
  libavfilter     7. 57.100 /  7. 57.100
  libavresample   4.  0.  0 /  4.  0.  0
  libswscale      5.  5.100 /  5.  5.100
  libswresample   3.  5.100 /  3.  5.100
  libpostproc    55.  5.100 / 55.  5.100
[hls @ 0x55a43d6fb880] Skip ('#EXT-X-VERSION:3')
[hls @ 0x55a43d6fb880] Skip ('#EXT-X-DISCONTINUITY-SEQUENCE:365')
[hls @ 0x55a43d6fb880] Skip ('#EXT-X-PROGRAM-DATE-TIME:2021-09-09T11:16:05.032+00:00')
[hls @ 0x55a43d6fb880] Opening 'https://rr8---sn-gwpa-jv3z.googlevideo.com/videoplayback/id/zcrUCvBD16k.3/itag/93/source/yt_live_broadcast/expire/1631207790/ei/Du05YZOfK7_K4-EPiaSV4AM/ip/2409:4073:4e1d:dd5c:6b5e:27a4:5968:6d50/requiressl/yes/ratebypass/yes/live/1/sgoap/gir%3Dyes%3Bitag%3D140/sgovp/gir%3Dyes%3Bitag%3D134/hls_chunk_host/rr8---sn-gwpa-jv3z.googlevideo.com/playlist_duration/30/manifest_duration/30/vprv/1/playlist_type/DVR/hcs/ir/initcwndbps/2100/mh/IF/mm/44/mn/sn-gwpa-jv3z/ms/lva/mv/m/mvi/8/pl/41/rmhost/rr6---sn-gwpa-jv3z.googlevideo.com/keepalive/yes/fexp/24001373,24007246/mt/1631185717/sparams/expire,ei,ip,id,itag,source,requiressl,ratebypass,live,sgoap,sgovp,playlist_duration,manifest_duration,vprv,playlist_type/sig/AOq0QJ8wRAIgCIHAtPMiLunqPoW5tsiVHpOn5plmjK9jaYYgy1ZGzWACIGlG9Y3uCkUkocb_eoWwMS94I7Mtzi_ZuO-kBog3cmoz/lsparams/hls_chunk_host,hcs,initcwndbps,mh,mm,mn,ms,mv,mvi,pl,rmhost/lsig/AG3C_xAwRgIhAM5fFR8ZxCtDQQTgQUaHCGELkgIkTiEZvvbLd4n8rHXiAiEA_cV4yWPj5Z8creVShepTXSd7VkC3pGPjAsASmI6sjKE%3D/playlist/index.m3u8/sq/1549857/goap/clen%3D83546%3Blmt%3D1631182685125254/govp/clen%3D256854%3Blmt%3D1631182685125249/dur/5.000/file/seg.ts' for reading
    Last message repeated 1 times
Input #0, hls, from 'https://manifest.googlevideo.com/api/manifest/hls_playlist/expire/1631207790/ei/Du05YZOfK7_K4-EPiaSV4AM/ip/2409:4073:4e1d:dd5c:6b5e:27a4:5968:6d50/id/zcrUCvBD16k.3/itag/93/source/yt_live_broadcast/requiressl/yes/ratebypass/yes/live/1/sgoap/gir%3Dyes%3Bitag%3D140/sgovp/gir%3Dyes%3Bitag%3D134/hls_chunk_host/rr8---sn-gwpa-jv3z.googlevideo.com/playlist_duration/30/manifest_duration/30/vprv/1/playlist_type/DVR/hcs/ir/initcwndbps/2100/mh/IF/mm/44/mn/sn-gwpa-jv3z/ms/lva/mv/m/mvi/8/pl/41/rmhost/rr6---sn-gwpa-jv3z.googlevideo.com/dover/11/keepalive/yes/fexp/24001373,24007246/mt/1631185717/sparams/expire,ei,ip,id,itag,source,requiressl,ratebypass,live,sgoap,sgovp,playlist_duration,manifest_duration,vprv,playlist_type/sig/AOq0QJ8wRAIgCIHAtPMiLunqPoW5tsiVHpOn5plmjK9jaYYgy1ZGzWACIGlG9Y3uCkUkocb_eoWwMS94I7Mtzi_ZuO-kBog3cmoz/lsparams/hls_chunk_host,hcs,initcwndbps,mh,mm,mn,ms,mv,mvi,pl,rmhost/lsig/AG3C_xAwRgIhAM5fFR8ZxCtDQQTgQUaHCGELkgIkTiEZvvbLd4n8rHXiAiEA_cV4yWPj5Z8creVShepTXSd7VkC3pGPjAsASmI6sjKE%3D/playlist/index.m3u8':
  Duration: N/A, start: 18309.919444, bitrate: N/A
  Program 0 
    Metadata:
      variant_bitrate : 0
    Stream #0:0: Audio: aac (LC) ([15][0][0][0] / 0x000F), 44100 Hz, stereo, fltp
    Metadata:
      variant_bitrate : 0
    Stream #0:1: Video: h264 (Main) ([27][0][0][0] / 0x001B), yuv420p(tv, bt709), 640x360 [SAR 1:1 DAR 16:9], 30 tbr, 90k tbn, 60 tbc
    Metadata:
      variant_bitrate : 0
Stream mapping:
  Stream #0:0 -> #0:0 (aac (native) -> pcm_s16le (native))
  Stream #0:1 -> #1:0 (h264 (native) -> rawvideo (native))
Press [q] to stop, [?] for help
Output #0, s16le, to './downloads/09-09-2021-16:46:34_audio.raw':
  Metadata:
    encoder         : Lavf58.29.100
    Stream #0:0: Audio: pcm_s16le, 48000 Hz, mono, s16, 768 kb/s
    Metadata:
      variant_bitrate : 0
      encoder         : Lavc58.54.100 pcm_s16le
Output #1, rawvideo, to './downloads/09-09-2021-16:46:34_video.raw':
  Metadata:
    encoder         : Lavf58.29.100
    Stream #1:0: Video: rawvideo (I420 / 0x30323449), yuv420p, 640x360 [SAR 1:1 DAR 16:9], q=2-31, 82944 kb/s, 30 fps, 30 tbn, 30 tbc
    Metadata:
      variant_bitrate : 0
      encoder         : Lavc58.54.100 rawvideo
frame=   87 fps=0.0 q=-0.0 size=     256kB time=00:00:03.08 bitrate= 679.2kbits/s speed=6.16x    [https @ 0x55a43d9da7c0] Opening 'https://rr8---sn-gwpa-jv3z.googlevideo.com/videoplayback/id/zcrUCvBD16k.3/itag/93/source/yt_live_broadcast/expire/1631207790/ei/Du05YZOfK7_K4-EPiaSV4AM/ip/2409:4073:4e1d:dd5c:6b5e:27a4:5968:6d50/requiressl/yes/ratebypass/yes/live/1/sgoap/gir%3Dyes%3Bitag%3D140/sgovp/gir%3Dyes%3Bitag%3D134/hls_chunk_host/rr8---sn-gwpa-jv3z.googlevideo.com/playlist_duration/30/manifest_duration/30/vprv/1/playlist_type/DVR/hcs/ir/initcwndbps/2100/mh/IF/mm/44/mn/sn-gwpa-jv3z/ms/lva/mv/m/mvi/8/pl/41/rmhost/rr6---sn-gwpa-jv3z.googlevideo.com/keepalive/yes/fexp/24001373,24007246/mt/1631185717/sparams/expire,ei,ip,id,itag,source,requiressl,ratebypass,live,sgoap,sgovp,playlist_duration,manifest_duration,vprv,playlist_type/sig/AOq0QJ8wRAIgCIHAtPMiLunqPoW5tsiVHpOn5plmjK9jaYYgy1ZGzWACIGlG9Y3uCkUkocb_eoWwMS94I7Mtzi_ZuO-kBog3cmoz/lsparams/hls_chunk_host,hcs,initcwndbps,mh,mm,mn,ms,mv,mvi,pl,rmhost/lsig/AG3C_xAwRgIhAM5fFR8ZxCtDQQTgQUaHCGELkgIkTiEZvvbLd4n8rHXiAiEA_cV4yWPj5Z8creVShepTXSd7VkC3pGPjAsASmI6sjKE%3D/playlist/index.m3u8/sq/1549859/goap/clen%3D83112%3Blmt%3D1631182685125286/govp/clen%3D388439%3Blmt%3D1631182685125281/dur/5.000/file/seg.ts' for reading
frame=  146 fps=116 q=-0.0 size=     256kB time=00:00:05.03 bitrate= 416.2kbits/s speed=3.99x    frame=  195 fps=108 q=-0.0 size=     512kB time=00:00:06.66 bitrate= 629.4kbits/s speed= 3.7x    frame=  266 fps=116 q=-0.0 size=     768kB time=00:00:09.03 bitrate= 696.6kbits/s speed=3.92x    frame=  347 fps=124 q=-0.0 size=    1024kB time=00:00:11.72 bitrate= 715.4kbits/s speed=4.18x    [hls @ 0x55a43d6fb880] Skip ('#EXT-X-VERSION:3')
[hls @ 0x55a43d6fb880] Skip ('#EXT-X-DISCONTINUITY-SEQUENCE:365')
[hls @ 0x55a43d6fb880] Skip ('#EXT-X-PROGRAM-DATE-TIME:2021-09-09T11:16:15.032+00:00')
[https @ 0x55a43d9da7c0] Opening 'https://rr8---sn-gwpa-jv3z.googlevideo.com/videoplayback/id/zcrUCvBD16k.3/itag/93/source/yt_live_broadcast/expire/1631207790/ei/Du05YZOfK7_K4-EPiaSV4AM/ip/2409:4073:4e1d:dd5c:6b5e:27a4:5968:6d50/requiressl/yes/ratebypass/yes/live/1/sgoap/gir%3Dyes%3Bitag%3D140/sgovp/gir%3Dyes%3Bitag%3D134/hls_chunk_host/rr8---sn-gwpa-jv3z.googlevideo.com/playlist_duration/30/manifest_duration/30/vprv/1/playlist_type/DVR/hcs/ir/initcwndbps/2100/mh/IF/mm/44/mn/sn-gwpa-jv3z/ms/lva/mv/m/mvi/8/pl/41/rmhost/rr6---sn-gwpa-jv3z.googlevideo.com/keepalive/yes/fexp/24001373,24007246/mt/1631185717/sparams/expire,ei,ip,id,itag,source,requiressl,ratebypass,live,sgoap,sgovp,playlist_duration,manifest_duration,vprv,playlist_type/sig/AOq0QJ8wRAIgCIHAtPMiLunqPoW5tsiVHpOn5plmjK9jaYYgy1ZGzWACIGlG9Y3uCkUkocb_eoWwMS94I7Mtzi_ZuO-kBog3cmoz/lsparams/hls_chunk_host,hcs,initcwndbps,mh,mm,mn,ms,mv,mvi,pl,rmhost/lsig/AG3C_xAwRgIhAM5fFR8ZxCtDQQTgQUaHCGELkgIkTiEZvvbLd4n8rHXiAiEA_cV4yWPj5Z8creVShepTXSd7VkC3pGPjAsASmI6sjKE%3D/playlist/index.m3u8/sq/1549860/goap/clen%3D83488%3Blmt%3D1631182685125302/govp/clen%3D268970%3Blmt%3D1631182685125297/dur/5.000/file/seg.ts' for reading
[https @ 0x55a43da23300] Opening 'https://rr8---sn-gwpa-jv3z.googlevideo.com/videoplayback/id/zcrUCvBD16k.3/itag/93/source/yt_live_broadcast/expire/1631207790/ei/Du05YZOfK7_K4-EPiaSV4AM/ip/2409:4073:4e1d:dd5c:6b5e:27a4:5968:6d50/requiressl/yes/ratebypass/yes/live/1/sgoap/gir%3Dyes%3Bitag%3D140/sgovp/gir%3Dyes%3Bitag%3D134/hls_chunk_host/rr8---sn-gwpa-jv3z.googlevideo.com/playlist_duration/30/manifest_duration/30/vprv/1/playlist_type/DVR/hcs/ir/initcwndbps/2100/mh/IF/mm/44/mn/sn-gwpa-jv3z/ms/lva/mv/m/mvi/8/pl/41/rmhost/rr6---sn-gwpa-jv3z.googlevideo.com/keepalive/yes/fexp/24001373,24007246/mt/1631185717/sparams/expire,ei,ip,id,itag,source,requiressl,ratebypass,live,sgoap,sgovp,playlist_duration,manifest_duration,vprv,playlist_type/sig/AOq0QJ8wRAIgCIHAtPMiLunqPoW5tsiVHpOn5plmjK9jaYYgy1ZGzWACIGlG9Y3uCkUkocb_eoWwMS94I7Mtzi_ZuO-kBog3cmoz/lsparams/hls_chunk_host,hcs,initcwndbps,mh,mm,mn,ms,mv,mvi,pl,rmhost/lsig/AG3C_xAwRgIhAM5fFR8ZxCtDQQTgQUaHCGELkgIkTiEZvvbLd4n8rHXiAiEA_cV4yWPj5Z8creVShepTXSd7VkC3pGPjAsASmI6sjKE%3D/playlist/index.m3u8/sq/1549861/goap/clen%3D82884%3Blmt%3D1631182685125318/govp/clen%3D216321%3Blmt%3D1631182685125313/dur/5.000/file/seg.ts' for reading
frame=  445 fps= 73 q=-0.0 size=    1280kB time=00:00:15.04 bitrate= 696.9kbits/s speed=2.46x    frame=  549 fps= 83 q=-0.0 size=    1536kB time=00:00:18.43 bitrate= 682.5kbits/s speed=2.78x    frame=  650 fps= 91 q=-0.0 size=    1792kB time=00:00:21.82 bitrate= 672.6kbits/s speed=3.04x    frame=  744 fps= 97 q=-0.0 size=    2304kB time=00:00:24.96 bitrate= 756.2kbits/s speed=3.25x    [https @ 0x55a43e0445c0] Opening 'https://manifest.googlevideo.com/api/manifest/hls_playlist/expire/1631207790/ei/Du05YZOfK7_K4-EPiaSV4AM/ip/2409:4073:4e1d:dd5c:6b5e:27a4:5968:6d50/id/zcrUCvBD16k.3/itag/93/source/yt_live_broadcast/requiressl/yes/ratebypass/yes/live/1/sgoap/gir%3Dyes%3Bitag%3D140/sgovp/gir%3Dyes%3Bitag%3D134/hls_chunk_host/rr8---sn-gwpa-jv3z.googlevideo.com/playlist_duration/30/manifest_duration/30/vprv/1/playlist_type/DVR/hcs/ir/initcwndbps/2100/mh/IF/mm/44/mn/sn-gwpa-jv3z/ms/lva/mv/m/mvi/8/pl/41/rmhost/rr6---sn-gwpa-jv3z.googlevideo.com/dover/11/keepalive/yes/fexp/24001373,24007246/mt/1631185717/sparams/expire,ei,ip,id,itag,source,requiressl,ratebypass,live,sgoap,sgovp,playlist_duration,manifest_duration,vprv,playlist_type/sig/AOq0QJ8wRAIgCIHAtPMiLunqPoW5tsiVHpOn5plmjK9jaYYgy1ZGzWACIGlG9Y3uCkUkocb_eoWwMS94I7Mtzi_ZuO-kBog3cmoz/lsparams/hls_chunk_host,hcs,initcwndbps,mh,mm,mn,ms,mv,mvi,pl,rmhost/lsig/AG3C_xAwRgIhAM5fFR8ZxCtDQQTgQUaHCGELkgIkTiEZvvbLd4n8rHXiAiEA_cV4yWPj5Z8creVShepTXSd7VkC3pGPjAsASmI6sjKE%3D/playlist/index.m3u8' for reading
[hls @ 0x55a43d6fb880] Skip ('#EXT-X-VERSION:3')
[hls @ 0x55a43d6fb880] Skip ('#EXT-X-DISCONTINUITY-SEQUENCE:365')
[hls @ 0x55a43d6fb880] Skip ('#EXT-X-PROGRAM-DATE-TIME:2021-09-09T11:16:20.032+00:00')
[https @ 0x55a43da23300] Opening 'https://rr8---sn-gwpa-jv3z.googlevideo.com/videoplayback/id/zcrUCvBD16k.3/itag/93/source/yt_live_broadcast/expire/1631207790/ei/Du05YZOfK7_K4-EPiaSV4AM/ip/2409:4073:4e1d:dd5c:6b5e:27a4:5968:6d50/requiressl/yes/ratebypass/yes/live/1/sgoap/gir%3Dyes%3Bitag%3D140/sgovp/gir%3Dyes%3Bitag%3D134/hls_chunk_host/rr8---sn-gwpa-jv3z.googlevideo.com/playlist_duration/30/manifest_duration/30/vprv/1/playlist_type/DVR/hcs/ir/initcwndbps/2100/mh/IF/mm/44/mn/sn-gwpa-jv3z/ms/lva/mv/m/mvi/8/pl/41/rmhost/rr6---sn-gwpa-jv3z.googlevideo.com/keepalive/yes/fexp/24001373,24007246/mt/1631185717/sparams/expire,ei,ip,id,itag,source,requiressl,ratebypass,live,sgoap,sgovp,playlist_duration,manifest_duration,vprv,playlist_type/sig/AOq0QJ8wRAIgCIHAtPMiLunqPoW5tsiVHpOn5plmjK9jaYYgy1ZGzWACIGlG9Y3uCkUkocb_eoWwMS94I7Mtzi_ZuO-kBog3cmoz/lsparams/hls_chunk_host,hcs,initcwndbps,mh,mm,mn,ms,mv,mvi,pl,rmhost/lsig/AG3C_xAwRgIhAM5fFR8ZxCtDQQTgQUaHCGELkgIkTiEZvvbLd4n8rHXiAiEA_cV4yWPj5Z8creVShepTXSd7VkC3pGPjAsASmI6sjKE%3D/playlist/index.m3u8/sq/1549862/goap/clen%3D83372%3Blmt%3D1631182685125334/govp/clen%3D235452%3Blmt%3D1631182685125329/dur/5.000/file/seg.ts' for reading
frame=  745 fps= 67 q=-0.0 size=    2304kB time=00:00:25.05 bitrate= 753.3kbits/s speed=2.26x    frame=  812 fps= 70 q=-0.0 size=    2304kB time=00:00:27.21 bitrate= 693.6kbits/s speed=2.34x    frame=  862 fps= 70 q=-0.0 size=    2560kB time=00:00:28.90 bitrate= 725.4kbits/s speed=2.35x    [https @ 0x55a43e0445c0] Opening 'https://manifest.googlevideo.com/api/manifest/hls_playlist/expire/1631207790/ei/Du05YZOfK7_K4-EPiaSV4AM/ip/2409:4073:4e1d:dd5c:6b5e:27a4:5968:6d50/id/zcrUCvBD16k.3/itag/93/source/yt_live_broadcast/requiressl/yes/ratebypass/yes/live/1/sgoap/gir%3Dyes%3Bitag%3D140/sgovp/gir%3Dyes%3Bitag%3D134/hls_chunk_host/rr8---sn-gwpa-jv3z.googlevideo.com/playlist_duration/30/manifest_duration/30/vprv/1/playlist_type/DVR/hcs/ir/initcwndbps/2100/mh/IF/mm/44/mn/sn-gwpa-jv3z/ms/lva/mv/m/mvi/8/pl/41/rmhost/rr6---sn-gwpa-jv3z.googlevideo.com/dover/11/keepalive/yes/fexp/24001373,24007246/mt/1631185717/sparams/expire,ei,ip,id,itag,source,requiressl,ratebypass,live,sgoap,sgovp,playlist_duration,manifest_duration,vprv,playlist_type/sig/AOq0QJ8wRAIgCIHAtPMiLunqPoW5tsiVHpOn5plmjK9jaYYgy1ZGzWACIGlG9Y3uCkUkocb_eoWwMS94I7Mtzi_ZuO-kBog3cmoz/lsparams/hls_chunk_host,hcs,initcwndbps,mh,mm,mn,ms,mv,mvi,pl,rmhost/lsig/AG3C_xAwRgIhAM5fFR8ZxCtDQQTgQUaHCGELkgIkTiEZvvbLd4n8rHXiAiEA_cV4yWPj5Z8creVShepTXSd7VkC3pGPjAsASmI6sjKE%3D/playlist/index.m3u8' for reading
[hls @ 0x55a43d6fb880] Skip ('#EXT-X-VERSION:3')
[hls @ 0x55a43d6fb880] Skip ('#EXT-X-DISCONTINUITY-SEQUENCE:365')
[hls @ 0x55a43d6fb880] Skip ('#EXT-X-PROGRAM-DATE-TIME:2021-09-09T11:16:25.032+00:00')
[https @ 0x55a43da23300] Opening 'https://rr8---sn-gwpa-jv3z.googlevideo.com/videoplayback/id/zcrUCvBD16k.3/itag/93/source/yt_live_broadcast/expire/1631207790/ei/Du05YZOfK7_K4-EPiaSV4AM/ip/2409:4073:4e1d:dd5c:6b5e:27a4:5968:6d50/requiressl/yes/ratebypass/yes/live/1/sgoap/gir%3Dyes%3Bitag%3D140/sgovp/gir%3Dyes%3Bitag%3D134/hls_chunk_host/rr8---sn-gwpa-jv3z.googlevideo.com/playlist_duration/30/manifest_duration/30/vprv/1/playlist_type/DVR/hcs/ir/initcwndbps/2100/mh/IF/mm/44/mn/sn-gwpa-jv3z/ms/lva/mv/m/mvi/8/pl/41/rmhost/rr6---sn-gwpa-jv3z.googlevideo.com/keepalive/yes/fexp/24001373,24007246/mt/1631185717/sparams/expire,ei,ip,id,itag,source,requiressl,ratebypass,live,sgoap,sgovp,playlist_duration,manifest_duration,vprv,playlist_type/sig/AOq0QJ8wRAIgCIHAtPMiLunqPoW5tsiVHpOn5plmjK9jaYYgy1ZGzWACIGlG9Y3uCkUkocb_eoWwMS94I7Mtzi_ZuO-kBog3cmoz/lsparams/hls_chunk_host,hcs,initcwndbps,mh,mm,mn,ms,mv,mvi,pl,rmhost/lsig/AG3C_xAwRgIhAM5fFR8ZxCtDQQTgQUaHCGELkgIkTiEZvvbLd4n8rHXiAiEA_cV4yWPj5Z8creVShepTXSd7VkC3pGPjAsASmI6sjKE%3D/playlist/index.m3u8/sq/1549863/goap/clen%3D83450%3Blmt%3D1631182685125350/govp/clen%3D232473%3Blmt%3D1631182685125345/dur/5.000/file/seg.ts' for reading
frame=  895 fps= 55 q=-0.0 size=    2816kB time=00:00:30.04 bitrate= 767.8kbits/s speed=1.86x    frame=  930 fps= 56 q=-0.0 size=    2816kB time=00:00:31.16 bitrate= 740.3kbits/s speed=1.87x    frame=  995 fps= 58 q=-0.0 size=    3072kB time=00:00:33.34 bitrate= 754.7kbits/s speed=1.94x    